<?xml version="1.0" standalone="no"?>
<!DOCTYPE svg PUBLIC "-//W3C//DTD SVG 20010904//EN"
 "http://www.w3.org/TR/2001/REC-SVG-20010904/DTD/svg10.dtd">
<svg version="1.0" xmlns="http://www.w3.org/2000/svg"
 width="260.000000pt" height="260.000000pt" viewBox="0 0 260.000000 260.000000"
 preserveAspectRatio="xMidYMid meet">
<metadata>
Created by potrace 1.14, written by Peter Selinger 2001-2017
</metadata>
<g transform="translate(0.000000,260.000000) scale(0.100000,-0.100000)"
fill="#000000" stroke="none">
<path d="M1110 2179 c-19 -10 -56 -18 -82 -19 -37 0 -55 -7 -91 -34 -24 -18
-67 -41 -96 -51 -40 -13 -58 -26 -78 -57 -15 -21 -47 -51 -71 -65 -33 -19 -50
-39 -65 -72 -11 -25 -37 -65 -58 -88 -26 -28 -41 -55 -45 -82 -4 -28 -13 -42
-26 -47 -47 -15 -202 -130 -265 -197 -90 -97 -128 -171 -128 -254 0 -74 20
-107 85 -140 54 -28 173 -31 260 -8 30 8 56 15 57 15 1 0 5 -17 8 -37 12 -69
25 -99 56 -129 17 -16 41 -52 54 -80 17 -39 33 -57 69 -78 26 -15 58 -45 72
-66 20 -30 38 -43 77 -56 28 -9 70 -32 94 -50 35 -27 54 -34 89 -34 25 0 61
-8 82 -19 51 -26 280 -25 329 2 18 9 52 17 76 17 31 0 54 7 78 25 33 24 65 40
134 70 19 8 44 29 56 48 12 18 43 46 68 62 33 21 53 45 71 81 14 29 41 70 61
91 28 31 38 52 43 91 4 28 11 54 16 57 5 3 44 -7 87 -22 146 -50 283 -34 337
40 34 46 29 135 -12 221 -64 136 -219 291 -369 369 -35 17 -63 38 -63 45 0 7
-18 32 -40 55 -21 24 -48 64 -59 89 -11 25 -32 54 -47 64 -16 11 -53 45 -84
76 -39 40 -67 60 -97 67 -23 6 -60 27 -83 46 -35 29 -50 35 -88 35 -26 0 -65
9 -87 19 -59 26 -276 27 -325 0z m115 0 c32 -8 57 -8 95 0 45 10 56 9 92 -10
22 -11 66 -23 97 -26 43 -5 66 -14 96 -38 22 -17 59 -37 82 -44 30 -8 53 -25
78 -56 20 -24 56 -55 80 -69 31 -19 47 -37 60 -68 9 -24 32 -59 52 -80 26 -27
39 -52 50 -99 8 -34 24 -76 35 -92 16 -22 20 -43 19 -89 -1 -33 6 -80 14 -105
14 -41 14 -50 0 -93 -9 -26 -15 -72 -14 -103 2 -43 -3 -65 -23 -99 -14 -23
-29 -65 -32 -92 -6 -36 -17 -58 -46 -90 -21 -22 -47 -62 -59 -87 -15 -31 -34
-53 -60 -67 -21 -12 -55 -42 -75 -67 -26 -31 -49 -48 -76 -55 -22 -6 -60 -26
-85 -45 -34 -27 -55 -35 -85 -35 -23 0 -67 -11 -99 -24 -50 -22 -63 -23 -99
-14 -30 7 -58 7 -95 0 -44 -9 -57 -7 -90 9 -21 11 -67 23 -101 28 -50 6 -71
14 -98 37 -19 17 -56 36 -82 44 -37 10 -55 23 -78 54 -16 22 -50 53 -74 69
-33 20 -50 40 -65 75 -11 26 -36 64 -56 84 -27 28 -38 49 -44 87 -4 28 -18 66
-31 84 -51 72 -52 419 -2 499 14 21 27 59 31 85 5 35 16 57 44 88 21 23 47 62
58 88 15 34 33 55 66 76 25 16 59 47 75 70 23 32 40 43 76 52 25 7 63 27 86
45 31 26 49 34 81 34 23 1 67 12 97 25 66 29 52 27 105 14z"/>
<path d="M894 1495 c-15 -23 -15 -27 0 -50 27 -42 86 -26 86 23 0 55 -56 72
-86 27z"/>
<path d="M1546 1504 c-21 -20 -20 -37 3 -65 16 -20 23 -22 47 -14 51 18 42 95
-12 95 -12 0 -30 -7 -38 -16z"/>
<path d="M1262 1234 c-13 -9 -22 -26 -22 -41 0 -15 -26 -66 -60 -119 -33 -51
-60 -95 -60 -98 0 -22 25 6 74 83 54 86 57 88 94 88 38 0 40 -2 98 -93 53 -84
74 -109 74 -86 0 4 -27 48 -60 97 -42 63 -60 100 -60 122 0 28 -28 63 -50 63
-3 0 -16 -7 -28 -16z"/>
</g>
</svg>
